<svg width="22" height="23" viewBox="0 0 22 23" fill="none" xmlns="http://www.w3.org/2000/svg">
<path d="M12.5206 16.8161L13.1402 17.8061C17.4299 14.8116 19.8131 11.1737 19.8131 8.17921C19.8131 5.28373 17.7636 3.92261 16.0238 3.92261C13.8313 3.92261 12.2823 5.85293 12.2823 7.88223C12.2823 9.58982 13.3309 11.0499 14.7369 11.5944C15.1421 11.7429 15.5234 11.8666 15.5234 12.5843C15.5234 13.5 14.8799 14.8611 12.5206 16.8161ZM3.05941 16.8161L3.67904 17.8061C7.92108 14.8116 10.3519 11.1737 10.3519 8.17921C10.3519 5.28373 8.25472 3.92261 6.51501 3.92261C4.29866 3.92261 2.72577 5.85293 2.72577 7.88223C2.72577 9.58982 3.7982 11.0499 5.25193 11.5944C5.65707 11.7429 6.01454 11.8666 6.01454 12.5843C6.01454 13.5 5.34725 14.8611 3.05941 16.8161Z" fill="#E1E8F1"/>
</svg>
