<svg width="21" height="22" viewBox="0 0 21 22" fill="none" xmlns="http://www.w3.org/2000/svg">
<path d="M11.7301 16.5804L12.3393 17.6C16.5569 14.5157 18.9 10.7687 18.9 7.68436C18.9 4.70201 16.8849 3.30005 15.1745 3.30005C13.0188 3.30005 11.4958 5.28828 11.4958 7.37848C11.4958 9.1373 12.5268 10.6412 13.9092 11.202C14.3075 11.355 14.6824 11.4824 14.6824 12.2216C14.6824 13.1648 14.0498 14.5667 11.7301 16.5804ZM2.42804 16.5804L3.03724 17.6C7.20796 14.5157 9.59791 10.7687 9.59791 7.68436C9.59791 4.70201 7.53599 3.30005 5.82553 3.30005C3.64645 3.30005 2.10001 5.28828 2.10001 7.37848C2.10001 9.1373 3.1544 10.6412 4.58369 11.202C4.98201 11.355 5.33348 11.4824 5.33348 12.2216C5.33348 13.1648 4.67741 14.5667 2.42804 16.5804Z" fill="#E1E8F1"/>
</svg>
