<svg width="59" height="60" viewBox="0 0 59 60" fill="none" xmlns="http://www.w3.org/2000/svg">
<circle cx="29.3008" cy="29.9102" r="29" fill="white"/>
<g clip-path="url(#clip0_1_374)">
<path d="M21.5508 29.7852L24.0508 27.2852L30.9258 34.1602L35.3008 29.7852L39.0508 33.5352V22.1602H21.5508V29.7852ZM20.3008 19.6602H40.3008C40.6323 19.6602 40.9502 19.7919 41.1847 20.0263C41.4191 20.2607 41.5508 20.5786 41.5508 20.9102V40.9102C41.5508 41.2417 41.4191 41.5596 41.1847 41.794C40.9502 42.0285 40.6323 42.1602 40.3008 42.1602H20.3008C19.9693 42.1602 19.6513 42.0285 19.4169 41.794C19.1825 41.5596 19.0508 41.2417 19.0508 40.9102V20.9102C19.0508 20.5786 19.1825 20.2607 19.4169 20.0263C19.6513 19.7919 19.9693 19.6602 20.3008 19.6602V19.6602ZM34.6758 28.4102C34.1785 28.4102 33.7016 28.2126 33.35 27.861C32.9983 27.5094 32.8008 27.0324 32.8008 26.5352C32.8008 26.0379 32.9983 25.561 33.35 25.2093C33.7016 24.8577 34.1785 24.6602 34.6758 24.6602C35.1731 24.6602 35.65 24.8577 36.0016 25.2093C36.3532 25.561 36.5508 26.0379 36.5508 26.5352C36.5508 27.0324 36.3532 27.5094 36.0016 27.861C35.65 28.2126 35.1731 28.4102 34.6758 28.4102V28.4102Z" fill="#C2278E"/>
</g>
<defs>
<clipPath id="clip0_1_374">
<rect width="30" height="30" fill="white" transform="translate(15.3008 15.9102)"/>
</clipPath>
</defs>
</svg>
