<svg width="60" height="59" viewBox="0 0 60 59" fill="none" xmlns="http://www.w3.org/2000/svg">
<circle cx="29.8325" cy="29.6797" r="29" fill="#C2278E"/>
<g clip-path="url(#clip0_1_343)">
<path d="M22.0825 29.5547L24.5825 27.0547L31.4575 33.9297L35.8325 29.5547L39.5825 33.3047V21.9297H22.0825V29.5547ZM20.8325 19.4297H40.8325C41.164 19.4297 41.482 19.5614 41.7164 19.7958C41.9508 20.0302 42.0825 20.3482 42.0825 20.6797V40.6797C42.0825 41.0112 41.9508 41.3292 41.7164 41.5636C41.482 41.798 41.164 41.9297 40.8325 41.9297H20.8325C20.501 41.9297 20.1831 41.798 19.9486 41.5636C19.7142 41.3292 19.5825 41.0112 19.5825 40.6797V20.6797C19.5825 20.3482 19.7142 20.0302 19.9486 19.7958C20.1831 19.5614 20.501 19.4297 20.8325 19.4297V19.4297ZM35.2075 28.1797C34.7102 28.1797 34.2333 27.9821 33.8817 27.6305C33.5301 27.2789 33.3325 26.802 33.3325 26.3047C33.3325 25.8074 33.5301 25.3305 33.8817 24.9789C34.2333 24.6272 34.7102 24.4297 35.2075 24.4297C35.7048 24.4297 36.1817 24.6272 36.5333 24.9789C36.885 25.3305 37.0825 25.8074 37.0825 26.3047C37.0825 26.802 36.885 27.2789 36.5333 27.6305C36.1817 27.9821 35.7048 28.1797 35.2075 28.1797V28.1797Z" fill="white"/>
</g>
<defs>
<clipPath id="clip0_1_343">
<rect width="30" height="30" fill="white" transform="translate(15.8325 15.6797)"/>
</clipPath>
</defs>
</svg>
