<svg width="977" height="21" viewBox="0 0 977 21" fill="none" xmlns="http://www.w3.org/2000/svg">
<path d="M965.27 4.12329L964.661 3.15002C960.443 6.09414 958.1 9.67088 958.1 12.615C958.1 15.4618 960.115 16.8 961.826 16.8C963.981 16.8 965.504 14.9022 965.504 12.907C965.504 11.2281 964.473 9.79254 963.091 9.25724C962.692 9.11125 962.318 8.9896 962.318 8.28398C962.318 7.38371 962.95 6.04548 965.27 4.12329ZM974.572 4.12329L973.963 3.15002C969.792 6.09414 967.402 9.67088 967.402 12.615C967.402 15.4618 969.464 16.8 971.174 16.8C973.354 16.8 974.9 14.9022 974.9 12.907C974.9 11.2281 973.846 9.79254 972.416 9.25724C972.018 9.11125 971.667 8.9896 971.667 8.28398C971.667 7.38371 972.323 6.04548 974.572 4.12329Z" fill="#E1E8F1"/>
</svg>
