<svg width="196" height="51" viewBox="0 0 196 51" fill="none" xmlns="http://www.w3.org/2000/svg">
<path d="M58.2783 16.0486H63.0203V35.3808H58.2783V16.0486ZM64.9012 28.0814C64.9012 23.3001 67.8096 20.4473 72.2986 20.4473C76.7877 20.4473 79.6961 23.3001 79.6961 28.0814C79.6961 32.8626 76.8509 35.7314 72.2986 35.7314C67.7464 35.7314 64.9012 32.9423 64.9012 28.0814ZM74.9383 28.0814C74.9383 25.4517 73.9109 23.9058 72.2986 23.9058C70.6864 23.9058 69.6748 25.4995 69.6748 28.0814C69.6748 30.6633 70.6706 32.2251 72.2986 32.2251C73.9267 32.2251 74.9383 30.7589 74.9383 28.0973V28.0814ZM81.4822 36.3211H86.0345C86.2512 36.8064 86.6174 37.2082 87.0788 37.4667C87.5402 37.725 88.0721 37.8264 88.5951 37.7555C90.397 37.7555 91.3454 36.7673 91.3454 35.333V32.6555H91.2506C90.8728 33.4761 90.2597 34.1636 89.4905 34.6296C88.7214 35.0955 87.8313 35.3183 86.9354 35.2692C83.4738 35.2692 81.1819 32.6076 81.1819 28.0336C81.1819 23.4595 83.3632 20.5748 86.9986 20.5748C87.9227 20.5383 88.8357 20.7874 89.6154 21.2887C90.3951 21.7901 91.0043 22.5197 91.3612 23.3798V20.7183H96.1032V35.2214C96.1032 38.7117 93.0525 40.8792 88.5477 40.8792C84.359 40.8792 81.7509 38.9826 81.4822 36.337V36.3211ZM91.3612 28.0655C91.3612 25.7386 90.3022 24.2723 88.6267 24.2723C86.9512 24.2723 85.9238 25.7226 85.9238 28.0655C85.9238 30.4083 86.9354 31.7311 88.6267 31.7311C90.318 31.7311 91.3612 30.4401 91.3612 28.0814V28.0655ZM97.8893 28.0655C97.8893 23.2842 100.798 20.4314 105.287 20.4314C109.776 20.4314 112.7 23.2842 112.7 28.0655C112.7 32.8467 109.855 35.7155 105.287 35.7155C100.719 35.7155 97.8893 32.9423 97.8893 28.0814V28.0655ZM107.926 28.0655C107.926 25.4358 106.899 23.8898 105.287 23.8898C103.674 23.8898 102.742 25.4995 102.742 28.0973C102.742 30.6951 103.738 32.2411 105.35 32.2411C106.962 32.2411 107.926 30.7589 107.926 28.0973V28.0655ZM114.502 17.2439C114.489 16.7611 114.619 16.2856 114.875 15.8774C115.131 15.4693 115.502 15.1469 115.94 14.9513C116.377 14.7556 116.863 14.6955 117.335 14.7784C117.807 14.8614 118.243 15.0838 118.59 15.4173C118.936 15.7508 119.176 16.1805 119.28 16.652C119.384 17.1234 119.347 17.6152 119.173 18.0653C118.999 18.5152 118.697 18.9031 118.304 19.1797C117.912 19.4562 117.446 19.609 116.968 19.6186C116.65 19.6406 116.332 19.5961 116.032 19.488C115.733 19.38 115.458 19.2107 115.227 18.9906C114.995 18.7707 114.811 18.5047 114.687 18.2095C114.562 17.9145 114.499 17.5966 114.502 17.2758V17.2439ZM114.502 20.7501H119.244V35.3808H114.502V20.7501ZM136.457 28.0655C136.457 32.8467 134.355 35.572 130.751 35.572C129.827 35.6318 128.907 35.404 128.115 34.9195C127.324 34.4349 126.699 33.7169 126.325 32.8626H126.23V40.0664H121.488V20.7183H126.23V23.332H126.325C126.681 22.4636 127.294 21.7269 128.081 21.2222C128.867 20.7175 129.788 20.4692 130.719 20.5111C134.355 20.5748 136.52 23.3161 136.52 28.0973L136.457 28.0655ZM131.715 28.0655C131.715 25.7386 130.656 24.2564 128.996 24.2564C127.337 24.2564 126.278 25.7545 126.262 28.0655C126.246 30.3764 127.337 31.8586 128.996 31.8586C130.656 31.8586 131.715 30.4083 131.715 28.0973V28.0655ZM144.597 20.4155C148.533 20.4155 150.92 22.2961 151.031 25.3083H146.715C146.715 24.2723 145.862 23.6189 144.55 23.6189C143.238 23.6189 142.653 24.1289 142.653 24.878C142.653 25.627 143.175 25.8661 144.234 26.0892L147.269 26.7108C150.161 27.3323 151.394 28.5117 151.394 30.727C151.394 33.7551 148.66 35.6995 144.629 35.6995C140.598 35.6995 137.959 33.7551 137.753 30.7748H142.321C142.463 31.8586 143.317 32.4961 144.708 32.4961C146.099 32.4961 146.731 32.0339 146.731 31.2689C146.731 30.5039 146.289 30.3445 145.151 30.1055L142.416 29.5158C139.587 28.9261 138.101 27.412 138.101 25.1808C138.133 22.312 140.677 20.4473 144.597 20.4473V20.4155ZM167.216 35.3489H162.648V32.6236H162.553C162.302 33.5385 161.749 34.3394 160.984 34.8932C160.219 35.4469 159.289 35.7202 158.349 35.6676C157.629 35.7089 156.908 35.5938 156.235 35.3301C155.563 35.0663 154.954 34.6602 154.451 34.1389C153.947 33.6178 153.56 32.9935 153.317 32.3087C153.073 31.6238 152.978 30.8942 153.038 30.1692V20.7183H157.78V29.0695C157.78 30.8067 158.665 31.7311 160.135 31.7311C160.48 31.7317 160.821 31.6582 161.136 31.5153C161.449 31.3723 161.73 31.1632 161.958 30.9022C162.184 30.641 162.354 30.3338 162.454 30.0014C162.553 29.6688 162.584 29.3185 162.538 28.9739V20.7183H167.28L167.216 35.3489ZM169.508 20.7183H174.092V23.5392H174.187C174.438 22.6363 174.981 21.843 175.727 21.2836C176.473 20.7242 177.383 20.43 178.313 20.4473C179.259 20.371 180.198 20.6564 180.946 21.2471C181.692 21.8377 182.191 22.6901 182.343 23.6348H182.438C182.724 22.68 183.318 21.8487 184.126 21.2716C184.932 20.6945 185.908 20.4045 186.895 20.4473C187.54 20.4255 188.182 20.5407 188.78 20.7855C189.379 21.0302 189.918 21.3991 190.365 21.868C190.812 22.337 191.157 22.8956 191.377 23.5075C191.595 24.1193 191.685 24.771 191.637 25.4198V35.3808H186.895V26.6948C186.895 25.1011 186.184 24.368 184.856 24.368C184.561 24.3654 184.267 24.4269 183.997 24.5484C183.726 24.6698 183.484 24.8483 183.288 25.0719C183.092 25.2955 182.945 25.5588 182.858 25.8442C182.772 26.1298 182.748 26.4307 182.786 26.7267V35.3808H178.281V26.6311C178.281 25.1648 177.57 24.368 176.273 24.368C175.975 24.3681 175.678 24.4322 175.406 24.556C175.132 24.68 174.887 24.8609 174.69 25.0867C174.491 25.3126 174.342 25.5784 174.252 25.8667C174.163 26.1549 174.135 26.4588 174.171 26.7586V35.3808H169.429L169.508 20.7183Z" fill="#E0E0E0"/>
<path d="M45.017 16.9255C44.2126 15.071 43.1481 13.3427 41.8557 11.7937C39.9455 9.43546 37.5616 7.51188 34.8609 6.14956C32.1602 4.78726 29.2039 4.01708 26.1868 3.88972C23.1697 3.76237 20.16 4.28072 17.3557 5.41069C14.5516 6.54064 12.0166 8.25658 9.91755 10.4456C7.81848 12.6345 6.20298 15.2469 5.17738 18.1108C4.15178 20.9746 3.73931 24.0251 3.96714 27.0612C4.19499 30.0974 5.05795 33.0505 6.49924 35.7261C7.94054 38.4018 9.92749 40.7394 12.3293 42.5849C13.8704 43.7928 15.5733 44.7747 17.3874 45.5015C19.9306 46.5524 22.6526 47.0936 25.4012 47.0952C31.0748 47.0826 36.5119 44.8023 40.5209 40.7542C44.5297 36.7061 46.7833 31.2205 46.7874 25.4999C46.7915 22.5491 46.1888 19.6295 45.017 16.9255ZM25.3854 8.27147C27.8538 8.27121 30.2922 8.81516 32.5299 9.86522C31.9843 10.103 31.4105 10.269 30.8228 10.3593C28.8891 10.6415 27.0977 11.5467 25.7161 12.9398C24.3345 14.3329 23.4366 16.1392 23.1567 18.089C23.0339 19.1825 22.5406 20.1997 21.7602 20.9692C20.9799 21.7387 19.9602 22.213 18.8732 22.3124C16.9394 22.5947 15.148 23.4999 13.7664 24.893C12.3848 26.2861 11.487 28.0923 11.2071 30.0421C11.1123 31.0819 10.6723 32.059 9.95834 32.8152C8.72647 30.1908 8.17308 27.2946 8.34967 24.3966C8.52626 21.4985 9.42709 18.6925 10.9683 16.2398C12.5096 13.7871 14.6411 11.7674 17.1646 10.3686C19.6881 8.96981 22.5216 8.23744 25.4012 8.23959L25.3854 8.27147ZM12.3135 36.6562C12.5032 36.4809 12.6929 36.3215 12.8825 36.1302C14.2888 34.7556 15.1914 32.941 15.4432 30.9824C15.5453 29.8815 16.0327 28.8532 16.8183 28.0818C17.5744 27.2884 18.5918 26.8009 19.6793 26.7112C21.6131 26.4289 23.4044 25.5237 24.786 24.1306C26.1677 22.7375 27.0655 20.9313 27.3454 18.9815C27.4139 17.83 27.9039 16.7451 28.7206 15.9374C29.4953 15.1594 30.5224 14.6897 31.6132 14.6146C33.3897 14.3681 35.0465 13.5718 36.3551 12.3355C37.8452 13.582 39.1075 15.0814 40.0854 16.7662C40.0254 16.8479 39.9564 16.9228 39.8799 16.9893C39.1255 17.7897 38.1093 18.2879 37.019 18.3918C35.0832 18.6691 33.2891 19.5728 31.9065 20.9667C30.5241 22.3607 29.6279 24.1696 29.3528 26.1215C29.2414 27.2186 28.7573 28.2432 27.9824 29.0216C27.2074 29.8002 26.1895 30.2845 25.1009 30.3927C23.1615 30.6728 21.3635 31.5762 19.9738 32.9687C18.5842 34.3613 17.6771 36.1686 17.3874 38.1224C17.3023 38.9013 17.0369 39.6492 16.6128 40.3059C14.9911 39.3349 13.5386 38.102 12.3135 36.6562ZM25.3854 42.808C23.7815 42.8098 22.1853 42.5844 20.6435 42.1387C21.171 41.1474 21.5138 40.067 21.6551 38.9512C21.7659 37.8564 22.2478 36.8337 23.0195 36.0556C23.7912 35.2776 24.8055 34.7916 25.8912 34.6799C27.8278 34.4009 29.6228 33.497 31.0076 32.1036C32.3923 30.7104 33.2924 28.9023 33.5732 26.9502C33.684 25.8555 34.1659 24.8328 34.9376 24.0547C35.7093 23.2766 36.7236 22.7907 37.8093 22.679C39.2667 22.4879 40.6557 21.9408 41.8557 21.0852C42.5221 23.6319 42.601 26.2985 42.0865 28.8807C41.572 31.4629 40.4776 33.8921 38.8875 35.9817C37.2973 38.0711 35.2537 39.7657 32.9131 40.9352C30.5726 42.1047 27.9976 42.7182 25.3854 42.7284V42.808Z" fill="#E0E0E0"/>
</svg>
